<svg xmlns="http://www.w3.org/2000/svg" xmlns:xlink="http://www.w3.org/1999/xlink" width="51" height="52" version="1.1" viewBox="0 0 51 52"><title>Group 6</title><desc>Created with Sketch.</desc><defs><polygon id="path-1" points=".154 2.198 8.626 2.198 8.626 .476 .154 .476"/><polygon id="path-3" points=".071 8.541 1.871 8.541 1.871 .008 .071 .008"/></defs><g id="首页" fill="none" fill-rule="evenodd" stroke="none" stroke-width="1"><g id="扫一扫-copy-10" transform="translate(-162.000000, -64.000000)"><g id="Group-6" transform="translate(162.000000, 65.000000)"><circle id="Oval-5" cx="25.5" cy="25" r="25" fill="#FFF" stroke="#DEDEDE" stroke-width=".5"/><g id="Page-1" transform="translate(14.000000, 15.000000)"><path id="Fill-1" fill="#F76260" d="M21.9285994,3.52254949 L1.06924587,3.52254949 C0.511562203,3.52254949 0.060402381,4.0063298 0.060402381,4.60319444 L0.060402381,18.4171357 C0.060402381,18.7161196 0.159093592,18.9709731 0.355953839,19.1822477 C0.552814085,19.3935224 0.790926213,19.4983322 1.06924587,19.4983322 L21.9285994,19.4983322 C22.486283,19.4983322 22.937965,19.0151036 22.937965,18.4171357 L22.937965,4.60319444 C22.937965,4.30421049 22.839796,4.04990864 22.6424136,3.838634 C22.4455533,3.62735937 22.2079634,3.52254949 21.9285994,3.52254949 L21.9285994,3.52254949 Z M1.62640737,17.8434395 L21.3714379,17.8434395 L21.3714379,5.17744222 L1.62640737,5.17744222 L1.62640737,17.8434395 Z"/><g id="Group-5" transform="translate(7.119048, 9.832104)"><mask id="mask-2" fill="#fff"><use xlink:href="#path-1"/></mask><polygon id="Fill-3" fill="#F76260" points="-1.258 4.638 10.037 4.638 10.037 -1.606 -1.258 -1.606" mask="url(#mask-2)"/></g><g id="Group-8" transform="translate(10.404762, 7.073949)"><mask id="mask-4" fill="#fff"><use xlink:href="#path-3"/></mask><polygon id="Fill-6" fill="#F76260" points="-1.996 9.964 4.203 9.964 4.203 -1.414 -1.996 -1.414" mask="url(#mask-4)"/></g><path id="Stroke-9" stroke="#F76260" stroke-width="1.5" d="M6.53347857,3.55327534 L6.53347857,2.94979112 C6.53347857,1.43832243 7.82093095,0.212598552 9.40847857,0.212598552 L13.6087167,0.212598552 C15.1968119,0.212598552 16.4837167,1.43832243 16.4837167,2.94979112 L16.4837167,3.55327534"/></g></g></g></g></svg>